<svg aria-hidden="true" style="position: absolute; width: 0; height: 0; overflow: hidden;" version="1.1" xmlns="http://www.w3.org/2000/svg" xmlns:xlink="http://www.w3.org/1999/xlink">
<defs>
<symbol id="icon-burger-menu" viewBox="0 0 32 32">
<path stroke-linejoin="round" stroke-linecap="round" stroke-miterlimit="4" stroke-width="2.6667" d="M5.333 6.667h24"></path>
<path stroke-linejoin="round" stroke-linecap="round" stroke-miterlimit="4" stroke-width="2.6667" d="M5.333 16h24"></path>
<path stroke-linejoin="round" stroke-linecap="round" stroke-miterlimit="4" stroke-width="2.6667" d="M5.333 25.333h16"></path>
</symbol>
<symbol id="icon-instagram" viewBox="0 0 32 32">
<path d="M9.28 0h13.44c5.12 0 9.28 4.16 9.28 9.28v13.44c0 2.461-0.978 4.822-2.718 6.562s-4.101 2.718-6.562 2.718h-13.44c-5.12 0-9.28-4.16-9.28-9.28v-13.44c0-2.461 0.978-4.822 2.718-6.562s4.101-2.718 6.562-2.718zM8.96 3.2c-1.528 0-2.993 0.607-4.073 1.687s-1.687 2.545-1.687 4.073v14.080c0 3.184 2.576 5.76 5.76 5.76h14.080c1.528 0 2.993-0.607 4.073-1.687s1.687-2.545 1.687-4.073v-14.080c0-3.184-2.576-5.76-5.76-5.76h-14.080zM24.4 5.6c0.53 0 1.039 0.211 1.414 0.586s0.586 0.884 0.586 1.414-0.211 1.039-0.586 1.414c-0.375 0.375-0.884 0.586-1.414 0.586s-1.039-0.211-1.414-0.586c-0.375-0.375-0.586-0.884-0.586-1.414s0.211-1.039 0.586-1.414c0.375-0.375 0.884-0.586 1.414-0.586zM16 8c2.122 0 4.157 0.843 5.657 2.343s2.343 3.535 2.343 5.657c0 2.122-0.843 4.157-2.343 5.657s-3.535 2.343-5.657 2.343c-2.122 0-4.157-0.843-5.657-2.343s-2.343-3.535-2.343-5.657c0-2.122 0.843-4.157 2.343-5.657s3.535-2.343 5.657-2.343zM16 11.2c-1.273 0-2.494 0.506-3.394 1.406s-1.406 2.121-1.406 3.394c0 1.273 0.506 2.494 1.406 3.394s2.121 1.406 3.394 1.406c1.273 0 2.494-0.506 3.394-1.406s1.406-2.121 1.406-3.394c0-1.273-0.506-2.494-1.406-3.394s-2.121-1.406-3.394-1.406z"></path>
</symbol>
<symbol id="icon-arrow-down" viewBox="0 0 32 32">
<path stroke-linejoin="round" stroke-linecap="round" stroke-miterlimit="10" stroke-width="2.6667" d="M24.094 13.906l-8.093 8.093-8.093-8.093"></path>
</symbol>
<symbol id="icon-hand" viewBox="0 0 32 32">
<path d="M28.584 12.108c-0.223 0.105-1.791 1.344-3.486 2.741l-3.083 2.563-0.223-0.21c-0.625-0.557-0.816-0.599-3.517-0.651-1.515-0.042-2.649-0.105-2.808-0.179-0.148-0.063-0.572-0.368-0.954-0.662-1.282-1.029-2.098-1.208-5.138-1.124-2.151 0.053-2.744 0.168-3.655 0.672-0.265 0.147-1.653 1.428-3.104 2.857-2.151 2.122-2.617 2.626-2.617 2.867 0 0.294 0.244 0.504 0.593 0.504 0.106 0 1.356-1.155 2.786-2.563 2.182-2.153 2.712-2.626 3.242-2.867l0.636-0.294h2.649c2.988 0 2.988 0 4.047 0.903 0.275 0.242 0.773 0.567 1.091 0.714 0.562 0.263 0.657 0.273 2.967 0.305 1.388 0.021 2.511 0.074 2.68 0.147 0.466 0.179 0.71 0.567 0.71 1.124 0 0.273-0.074 0.588-0.169 0.725-0.371 0.536-0.466 0.546-4.916 0.546-3.994 0-4.143 0.011-4.344 0.21-0.117 0.115-0.212 0.283-0.212 0.368s0.095 0.252 0.212 0.368c0.201 0.2 0.35 0.21 4.27 0.21 2.225 0 4.238-0.053 4.46-0.105 1.028-0.231 1.748-1.124 1.854-2.269l0.064-0.641 3.125-2.605c1.716-1.428 3.231-2.636 3.369-2.689 0.943-0.368 2.023 0.567 1.78 1.544-0.095 0.378-9.864 10.136-10.499 10.472-0.413 0.231-0.519 0.231-5.986 0.284-4.905 0.042-5.605 0.074-5.88 0.231-0.466 0.252-1.748 1.607-1.748 1.838 0 0.252 0.318 0.557 0.572 0.557 0.095 0 0.53-0.326 0.964-0.735 0.424-0.399 0.89-0.756 1.028-0.788 0.127-0.032 2.649-0.063 5.594-0.084l5.35-0.021 0.583-0.284c0.477-0.231 1.526-1.218 5.732-5.409 5.647-5.609 5.456-5.378 5.371-6.596-0.053-0.788-0.392-1.376-1.059-1.807-0.572-0.378-1.716-0.462-2.331-0.168z"></path>
<path stroke-linejoin="miter" stroke-linecap="butt" stroke-miterlimit="4" stroke-width="1.3333" d="M16.144 9.441l2.94 2.738c0.14 0.131 0.358 0.131 0.498 0l2.94-2.738c0.836-0.778 0.937-2.066 0.233-2.965l-0.121-0.155c-0.837-1.069-2.506-0.889-3.095 0.335-0.083 0.173-0.33 0.173-0.413 0-0.589-1.224-2.258-1.404-3.095-0.335l-0.121 0.155c-0.704 0.899-0.603 2.187 0.233 2.965z"></path>
</symbol>
<symbol id="icon-clock" viewBox="0 0 32 32">
<path stroke-linejoin="round" stroke-linecap="round" stroke-miterlimit="4" stroke-width="2" d="M29.333 16.005c0 7.36-5.973 13.333-13.333 13.333s-13.333-5.973-13.333-13.333c0-7.36 5.973-13.333 13.333-13.333s13.333 5.973 13.333 13.333z"></path>
<path stroke-linejoin="round" stroke-linecap="round" stroke-miterlimit="4" stroke-width="2" d="M20.947 20.245l-4.133-2.467c-0.72-0.427-1.307-1.453-1.307-2.293v-5.467"></path>
</symbol>
<symbol id="icon-tellephone" viewBox="0 0 32 32">
<path d="M24.112 32c-1.682 0-3.453-0.402-5.284-1.176-1.786-0.759-3.587-1.801-5.343-3.066-1.741-1.28-3.423-2.709-5.016-4.272-1.578-1.593-3.007-3.275-4.272-5.001-1.28-1.786-2.307-3.572-3.036-5.299-0.774-1.846-1.161-3.632-1.161-5.314 0-1.161 0.208-2.262 0.61-3.289 0.417-1.057 1.087-2.039 1.994-2.887 1.146-1.131 2.456-1.697 3.855-1.697 0.58 0 1.176 0.134 1.682 0.372 0.58 0.268 1.072 0.67 1.429 1.206l3.453 4.867c0.313 0.432 0.551 0.848 0.714 1.265 0.193 0.447 0.298 0.893 0.298 1.325 0 0.566-0.164 1.116-0.476 1.637-0.223 0.402-0.566 0.834-0.997 1.265l-1.012 1.057c0.015 0.045 0.030 0.074 0.045 0.104 0.179 0.313 0.536 0.848 1.22 1.652 0.729 0.834 1.414 1.593 2.099 2.292 0.878 0.863 1.607 1.548 2.292 2.113 0.848 0.714 1.399 1.072 1.727 1.235l1.057-0.997c0.461-0.461 0.908-0.804 1.34-1.027 0.819-0.506 1.86-0.595 2.902-0.164 0.387 0.164 0.804 0.387 1.25 0.7l4.941 3.512c0.551 0.372 0.952 0.848 1.191 1.414 0.223 0.566 0.327 1.087 0.327 1.607 0 0.714-0.164 1.429-0.476 2.099s-0.7 1.25-1.191 1.786c-0.848 0.938-1.771 1.607-2.843 2.039-1.027 0.417-2.143 0.64-3.319 0.64zM6.46 2.233c-0.819 0-1.578 0.357-2.307 1.072-0.685 0.64-1.161 1.34-1.459 2.099-0.313 0.774-0.461 1.593-0.461 2.471 0 1.384 0.327 2.887 0.982 4.435 0.67 1.578 1.607 3.215 2.798 4.852s2.545 3.23 4.034 4.733c1.488 1.473 3.096 2.843 4.748 4.048 1.607 1.176 3.26 2.128 4.897 2.813 2.545 1.086 4.926 1.339 6.891 0.521 0.759-0.312 1.429-0.789 2.039-1.473 0.342-0.372 0.61-0.774 0.833-1.25 0.179-0.372 0.268-0.759 0.268-1.146 0-0.238-0.045-0.476-0.164-0.744-0.045-0.089-0.134-0.253-0.417-0.447l-4.941-3.513c-0.298-0.208-0.566-0.357-0.819-0.461-0.328-0.134-0.461-0.268-0.968 0.045-0.298 0.149-0.565 0.372-0.863 0.67l-1.131 1.116c-0.58 0.566-1.473 0.699-2.158 0.446l-0.402-0.179c-0.61-0.327-1.325-0.833-2.113-1.503-0.714-0.61-1.488-1.325-2.426-2.247-0.729-0.744-1.459-1.533-2.218-2.411-0.7-0.819-1.206-1.518-1.518-2.099l-0.179-0.447c-0.089-0.342-0.119-0.536-0.119-0.744 0-0.536 0.194-1.012 0.566-1.384l1.116-1.161c0.298-0.298 0.521-0.58 0.67-0.833 0.119-0.194 0.164-0.357 0.164-0.506 0-0.119-0.045-0.298-0.119-0.476-0.104-0.238-0.268-0.506-0.476-0.789l-3.453-4.882c-0.149-0.208-0.327-0.357-0.551-0.461-0.238-0.104-0.491-0.164-0.744-0.164z"></path>
<path d="M25.673 12.653c-0.61 0-1.116-0.506-1.116-1.116 0-0.536-0.536-1.652-1.429-2.605-0.878-0.938-1.846-1.488-2.664-1.488-0.61 0-1.116-0.506-1.116-1.116s0.506-1.116 1.116-1.116c1.444 0 2.962 0.774 4.286 2.188 1.235 1.325 2.039 2.947 2.039 4.138 0 0.61-0.506 1.116-1.116 1.116z"></path>
<path d="M30.883 12.651c-0.61 0-1.116-0.506-1.116-1.116 0-5.135-4.167-9.302-9.302-9.302-0.61 0-1.116-0.506-1.116-1.116s0.506-1.116 1.116-1.116c6.355 0 11.535 5.18 11.535 11.535 0 0.61-0.506 1.116-1.116 1.116z"></path>
</symbol>
</defs>
</svg>
