<svg aria-hidden="true" style="position: absolute; width: 0; height: 0; overflow: hidden;" version="1.1" xmlns="http://www.w3.org/2000/svg" xmlns:xlink="http://www.w3.org/1999/xlink">
<defs>
<symbol id="icon-burger-menu" viewBox="0 0 32 32">
<path stroke-linejoin="round" stroke-linecap="round" stroke-miterlimit="4" stroke-width="2.6667" d="M5.333 6.667h24"></path>
<path stroke-linejoin="round" stroke-linecap="round" stroke-miterlimit="4" stroke-width="2.6667" d="M5.333 16h24"></path>
<path stroke-linejoin="round" stroke-linecap="round" stroke-miterlimit="4" stroke-width="2.6667" d="M5.333 25.333h16"></path>
</symbol>
<symbol id="icon-instagram" viewBox="0 0 32 32">
<path d="M9.28 0h13.44c5.12 0 9.28 4.16 9.28 9.28v13.44c0 2.461-0.978 4.822-2.718 6.562s-4.101 2.718-6.562 2.718h-13.44c-5.12 0-9.28-4.16-9.28-9.28v-13.44c0-2.461 0.978-4.822 2.718-6.562s4.101-2.718 6.562-2.718zM8.96 3.2c-1.528 0-2.993 0.607-4.073 1.687s-1.687 2.545-1.687 4.073v14.080c0 3.184 2.576 5.76 5.76 5.76h14.080c1.528 0 2.993-0.607 4.073-1.687s1.687-2.545 1.687-4.073v-14.080c0-3.184-2.576-5.76-5.76-5.76h-14.080zM24.4 5.6c0.53 0 1.039 0.211 1.414 0.586s0.586 0.884 0.586 1.414-0.211 1.039-0.586 1.414c-0.375 0.375-0.884 0.586-1.414 0.586s-1.039-0.211-1.414-0.586c-0.375-0.375-0.586-0.884-0.586-1.414s0.211-1.039 0.586-1.414c0.375-0.375 0.884-0.586 1.414-0.586zM16 8c2.122 0 4.157 0.843 5.657 2.343s2.343 3.535 2.343 5.657c0 2.122-0.843 4.157-2.343 5.657s-3.535 2.343-5.657 2.343c-2.122 0-4.157-0.843-5.657-2.343s-2.343-3.535-2.343-5.657c0-2.122 0.843-4.157 2.343-5.657s3.535-2.343 5.657-2.343zM16 11.2c-1.273 0-2.494 0.506-3.394 1.406s-1.406 2.121-1.406 3.394c0 1.273 0.506 2.494 1.406 3.394s2.121 1.406 3.394 1.406c1.273 0 2.494-0.506 3.394-1.406s1.406-2.121 1.406-3.394c0-1.273-0.506-2.494-1.406-3.394s-2.121-1.406-3.394-1.406z"></path>
</symbol>
<symbol id="icon-arrow-down" viewBox="0 0 32 32">
<path stroke-linejoin="round" stroke-linecap="round" stroke-miterlimit="10" stroke-width="2.6667" d="M24.094 13.906l-8.093 8.093-8.093-8.093"></path>
</symbol>
<symbol id="icon-hand" viewBox="0 0 32 32">
<path d="M28.584 12.108c-0.223 0.105-1.791 1.344-3.486 2.741l-3.083 2.563-0.223-0.21c-0.625-0.557-0.816-0.599-3.517-0.651-1.515-0.042-2.649-0.105-2.808-0.179-0.148-0.063-0.572-0.368-0.954-0.662-1.282-1.029-2.098-1.208-5.138-1.124-2.151 0.053-2.744 0.168-3.655 0.672-0.265 0.147-1.653 1.428-3.104 2.857-2.151 2.122-2.617 2.626-2.617 2.867 0 0.294 0.244 0.504 0.593 0.504 0.106 0 1.356-1.155 2.786-2.563 2.182-2.153 2.712-2.626 3.242-2.867l0.636-0.294h2.649c2.988 0 2.988 0 4.047 0.903 0.275 0.242 0.773 0.567 1.091 0.714 0.562 0.263 0.657 0.273 2.967 0.305 1.388 0.021 2.511 0.074 2.68 0.147 0.466 0.179 0.71 0.567 0.71 1.124 0 0.273-0.074 0.588-0.169 0.725-0.371 0.536-0.466 0.546-4.916 0.546-3.994 0-4.143 0.011-4.344 0.21-0.117 0.115-0.212 0.283-0.212 0.368s0.095 0.252 0.212 0.368c0.201 0.2 0.35 0.21 4.27 0.21 2.225 0 4.238-0.053 4.46-0.105 1.028-0.231 1.748-1.124 1.854-2.269l0.064-0.641 3.125-2.605c1.716-1.428 3.231-2.636 3.369-2.689 0.943-0.368 2.023 0.567 1.78 1.544-0.095 0.378-9.864 10.136-10.499 10.472-0.413 0.231-0.519 0.231-5.986 0.284-4.905 0.042-5.605 0.074-5.88 0.231-0.466 0.252-1.748 1.607-1.748 1.838 0 0.252 0.318 0.557 0.572 0.557 0.095 0 0.53-0.326 0.964-0.735 0.424-0.399 0.89-0.756 1.028-0.788 0.127-0.032 2.649-0.063 5.594-0.084l5.35-0.021 0.583-0.284c0.477-0.231 1.526-1.218 5.732-5.409 5.647-5.609 5.456-5.378 5.371-6.596-0.053-0.788-0.392-1.376-1.059-1.807-0.572-0.378-1.716-0.462-2.331-0.168z"></path>
<path stroke-linejoin="miter" stroke-linecap="butt" stroke-miterlimit="4" stroke-width="1.3333" d="M16.144 9.441l2.94 2.738c0.14 0.131 0.358 0.131 0.498 0l2.94-2.738c0.836-0.778 0.937-2.066 0.233-2.965l-0.121-0.155c-0.837-1.069-2.506-0.889-3.095 0.335-0.083 0.173-0.33 0.173-0.413 0-0.589-1.224-2.258-1.404-3.095-0.335l-0.121 0.155c-0.704 0.899-0.603 2.187 0.233 2.965z"></path>
</symbol>
<symbol id="icon-clock" viewBox="0 0 32 32">
<path stroke-linejoin="round" stroke-linecap="round" stroke-miterlimit="4" stroke-width="2" d="M29.333 16.005c0 7.36-5.973 13.333-13.333 13.333s-13.333-5.973-13.333-13.333c0-7.36 5.973-13.333 13.333-13.333s13.333 5.973 13.333 13.333z"></path>
<path stroke-linejoin="round" stroke-linecap="round" stroke-miterlimit="4" stroke-width="2" d="M20.947 20.245l-4.133-2.467c-0.72-0.427-1.307-1.453-1.307-2.293v-5.467"></path>
</symbol>
<symbol id="icon-tellephone" viewBox="0 0 32 32">
<path d="M24.112 32c-1.682 0-3.453-0.402-5.284-1.176-1.786-0.759-3.587-1.801-5.343-3.066-1.741-1.28-3.423-2.709-5.016-4.272-1.578-1.593-3.007-3.275-4.272-5.001-1.28-1.786-2.307-3.572-3.036-5.299-0.774-1.846-1.161-3.632-1.161-5.314 0-1.161 0.208-2.262 0.61-3.289 0.417-1.057 1.087-2.039 1.994-2.887 1.146-1.131 2.456-1.697 3.855-1.697 0.58 0 1.176 0.134 1.682 0.372 0.58 0.268 1.072 0.67 1.429 1.206l3.453 4.867c0.313 0.432 0.551 0.848 0.714 1.265 0.193 0.447 0.298 0.893 0.298 1.325 0 0.566-0.164 1.116-0.476 1.637-0.223 0.402-0.566 0.834-0.997 1.265l-1.012 1.057c0.015 0.045 0.030 0.074 0.045 0.104 0.179 0.313 0.536 0.848 1.22 1.652 0.729 0.834 1.414 1.593 2.099 2.292 0.878 0.863 1.607 1.548 2.292 2.113 0.848 0.714 1.399 1.072 1.727 1.235l1.057-0.997c0.461-0.461 0.908-0.804 1.34-1.027 0.819-0.506 1.86-0.595 2.902-0.164 0.387 0.164 0.804 0.387 1.25 0.7l4.941 3.512c0.551 0.372 0.952 0.848 1.191 1.414 0.223 0.566 0.327 1.087 0.327 1.607 0 0.714-0.164 1.429-0.476 2.099s-0.7 1.25-1.191 1.786c-0.848 0.938-1.771 1.607-2.843 2.039-1.027 0.417-2.143 0.64-3.319 0.64zM6.46 2.233c-0.819 0-1.578 0.357-2.307 1.072-0.685 0.64-1.161 1.34-1.459 2.099-0.313 0.774-0.461 1.593-0.461 2.471 0 1.384 0.327 2.887 0.982 4.435 0.67 1.578 1.607 3.215 2.798 4.852s2.545 3.23 4.034 4.733c1.488 1.473 3.096 2.843 4.748 4.048 1.607 1.176 3.26 2.128 4.897 2.813 2.545 1.086 4.926 1.339 6.891 0.521 0.759-0.312 1.429-0.789 2.039-1.473 0.342-0.372 0.61-0.774 0.833-1.25 0.179-0.372 0.268-0.759 0.268-1.146 0-0.238-0.045-0.476-0.164-0.744-0.045-0.089-0.134-0.253-0.417-0.447l-4.941-3.513c-0.298-0.208-0.566-0.357-0.819-0.461-0.328-0.134-0.461-0.268-0.968 0.045-0.298 0.149-0.565 0.372-0.863 0.67l-1.131 1.116c-0.58 0.566-1.473 0.699-2.158 0.446l-0.402-0.179c-0.61-0.327-1.325-0.833-2.113-1.503-0.714-0.61-1.488-1.325-2.426-2.247-0.729-0.744-1.459-1.533-2.218-2.411-0.7-0.819-1.206-1.518-1.518-2.099l-0.179-0.447c-0.089-0.342-0.119-0.536-0.119-0.744 0-0.536 0.194-1.012 0.566-1.384l1.116-1.161c0.298-0.298 0.521-0.58 0.67-0.833 0.119-0.194 0.164-0.357 0.164-0.506 0-0.119-0.045-0.298-0.119-0.476-0.104-0.238-0.268-0.506-0.476-0.789l-3.453-4.882c-0.149-0.208-0.327-0.357-0.551-0.461-0.238-0.104-0.491-0.164-0.744-0.164z"></path>
<path d="M25.673 12.653c-0.61 0-1.116-0.506-1.116-1.116 0-0.536-0.536-1.652-1.429-2.605-0.878-0.938-1.846-1.488-2.664-1.488-0.61 0-1.116-0.506-1.116-1.116s0.506-1.116 1.116-1.116c1.444 0 2.962 0.774 4.286 2.188 1.235 1.325 2.039 2.947 2.039 4.138 0 0.61-0.506 1.116-1.116 1.116z"></path>
<path d="M30.883 12.651c-0.61 0-1.116-0.506-1.116-1.116 0-5.135-4.167-9.302-9.302-9.302-0.61 0-1.116-0.506-1.116-1.116s0.506-1.116 1.116-1.116c6.355 0 11.535 5.18 11.535 11.535 0 0.61-0.506 1.116-1.116 1.116z"></path>
</symbol>
<symbol id="icon-lotus" viewBox="0 0 32 32">
<path d="M16.9 0.088c-0.65 0.213-1.187 0.8-1.519 1.656-0.281 0.725-0.531 2.1-0.794 4.362l-0.031 0.263-0.631-0.531c-2.612-2.181-4.587-2.931-5.669-2.15-1.019 0.738-1.325 2.931-0.831 5.925 0.056 0.319 0.050 0.331-0.075 0.3-0.963-0.231-3.112-0.275-4.037-0.075-1.856 0.4-2.819 1.219-2.556 2.175 0.1 0.387 0.206 0.569 0.706 1.238 0.531 0.719 2.138 2.338 3.037 3.081 0.362 0.294 0.725 0.594 0.813 0.663l0.156 0.125-0.875 0.006c-1.775 0-3.206 0.413-4.006 1.137-1.075 0.988-0.619 2.313 1.231 3.55 1.444 0.963 3.206 1.631 4.806 1.825 0.325 0.037 0.606 0.075 0.619 0.087 0.013 0.006-0.088 0.113-0.219 0.225-1.038 0.887-1.781 1.762-2.188 2.581-0.781 1.569-0.306 2.556 1.456 3.044 0.431 0.119 0.65 0.137 1.863 0.137 4.125 0 7.2-1.269 8.625-3.556l0.306-0.481 0.194 0.613c0.925 2.875 2.844 5.069 4.894 5.594 1.063 0.269 1.888 0.063 2.606-0.663 0.613-0.606 0.95-1.456 1.1-2.737 0.213-1.819-0.237-3.731-1.231-5.281-0.156-0.25-0.281-0.463-0.269-0.475 0.013-0.006 0.263-0.063 0.556-0.125 1.419-0.294 3.244-1.044 4.375-1.794 0.7-0.462 1.806-1.544 2.119-2.069 0.413-0.706 0.531-1.087 0.537-1.706 0-0.481-0.025-0.613-0.169-0.919-0.294-0.631-0.85-1.044-1.737-1.281-0.331-0.087-0.675-0.113-1.919-0.113-0.837 0-1.519-0.006-1.519-0.013s0.125-0.225 0.281-0.481c0.669-1.1 1.212-2.469 1.506-3.8 0.156-0.7 0.175-0.881 0.175-2.081 0-1.156-0.019-1.369-0.137-1.8-0.287-1.038-0.775-1.725-1.431-2.025-0.3-0.138-0.406-0.156-0.825-0.131-0.863 0.050-1.513 0.438-2.725 1.619l-0.694 0.675-0.225-0.763c-0.713-2.4-2.013-4.406-3.456-5.35-0.256-0.169-0.6-0.35-0.763-0.412-0.413-0.138-1.113-0.175-1.431-0.069zM18.125 0.388c1.081 0.331 2.275 1.525 3.175 3.175 0.363 0.662 0.794 1.744 1.044 2.631l0.219 0.756-0.513 0.631c-1.1 1.369-2.137 3.2-2.65 4.669-0.3 0.844-0.419 0.894-0.581 0.219-0.125-0.519-0.544-1.306-0.894-1.694-0.644-0.7-1.337-1.019-2.362-1.081l-0.656-0.037-0.044-0.281c-0.063-0.438-0.056-2.581 0.012-3.344 0.081-0.912 0.288-2.275 0.469-3.131 0.431-2.069 1.394-2.938 2.781-2.513zM9.963 3.75c0.9 0.231 2.094 0.931 3.475 2.044 1.187 0.956 1.075 0.731 1.094 2.188 0.006 0.681 0.037 1.338 0.063 1.463l0.044 0.225-0.556 0.1c-0.3 0.056-0.812 0.188-1.125 0.287-0.55 0.169-0.594 0.175-0.844 0.088-1.088-0.381-2.381-0.356-3.181 0.050-0.219 0.113-0.231 0.106-0.688-0.037-0.537-0.169-0.487-0.069-0.65-1.375-0.131-1.050-0.131-2.588 0-3.275 0.188-0.987 0.6-1.594 1.2-1.781 0.406-0.125 0.606-0.119 1.169 0.025zM26.769 4.7c0.138 0.044 0.4 0.213 0.581 0.381 0.613 0.556 0.937 1.5 1 2.856 0.1 2.037-0.569 4.369-1.806 6.356-0.319 0.512-0.319 0.512-0.631 0.55-1.1 0.144-2.794 0.581-4.025 1.037-0.363 0.131-0.675 0.244-0.694 0.244-0.025 0-0.075-0.175-0.113-0.394-0.15-0.769-0.463-1.313-1.219-2.081l-0.494-0.5 0.225-0.644c0.794-2.275 2.137-4.362 4.031-6.256 1.35-1.356 2.275-1.813 3.144-1.55zM6.032 10c0.8 0.081 1.469 0.206 2.013 0.381l0.394 0.131-0.188 0.225c-0.431 0.537-0.631 1.412-0.506 2.225l0.069 0.469-0.25 0.631c-0.35 0.881-0.563 1.781-0.606 2.563l-0.037 0.663-0.487-0.075-0.487-0.069-0.763-0.613c-1.088-0.881-2.031-1.75-2.688-2.487-1.631-1.813-1.837-2.425-1.050-3.138s2.681-1.081 4.588-0.906zM16.463 10.119c0.756 0.269 1.375 0.813 1.737 1.531 0.194 0.381 0.375 0.856 0.344 0.887-0.006 0.006-0.425-0.188-0.919-0.438-1.369-0.681-2.575-1.037-3.531-1.037-0.15 0-0.294-0.031-0.313-0.063-0.025-0.037-0.25-0.188-0.512-0.344l-0.469-0.275 0.444-0.131c0.781-0.238 1.306-0.313 2.1-0.287 0.556 0.019 0.844 0.056 1.119 0.156zM11.319 10.225c0.581 0.106 1.281 0.369 1.806 0.669l0.338 0.194-0.4 0.075c-0.894 0.169-1.694 0.569-2.387 1.213-0.819 0.75-1.313 1.569-1.488 2.469l-0.1 0.5-0.269-0.4c-0.606-0.888-0.844-1.669-0.806-2.6 0.044-0.963 0.338-1.519 1-1.875 0.631-0.344 1.363-0.425 2.306-0.244zM15.063 11.444c0.6 0.113 0.581 0.094 0.375 0.375-0.1 0.137-0.213 0.412-0.256 0.606-0.094 0.456 0.031 1.106 0.344 1.831 0.119 0.288 0.213 0.525 0.206 0.531-0.006 0.013-0.331-0.087-0.713-0.225-1.619-0.55-2.681-0.469-3.375 0.263-0.444 0.469-0.675 1.2-0.75 2.387l-0.037 0.681-0.481-0.5c-1.019-1.050-1.225-2.156-0.631-3.363 0.463-0.938 1.3-1.769 2.225-2.219 0.975-0.469 1.925-0.581 3.094-0.369zM17.5 12.338c0.956 0.475 1.575 0.912 2.219 1.563 0.438 0.437 0.619 0.675 0.794 1.037 0.469 0.975 0.475 1.869 0.019 2.913-0.163 0.369-0.775 1.337-0.85 1.337-0.019 0-0.075-0.119-0.119-0.269-0.331-1.119-1.406-2.4-3.019-3.606-0.306-0.225-0.4-0.35-0.6-0.775-0.506-1.056-0.631-1.863-0.381-2.375 0.069-0.144 0.2-0.3 0.294-0.363 0.162-0.094 0.187-0.094 0.575 0.050 0.219 0.088 0.7 0.3 1.069 0.488zM8.2 14.425c0.131 0.263 0.406 0.706 0.613 0.981s0.419 0.638 0.475 0.813c0.2 0.613 0.725 1.337 1.275 1.756 0.231 0.175 0.313 0.281 0.313 0.4 0.006 0.569 0.55 1.875 1.063 2.556 0.144 0.181 0.244 0.344 0.225 0.363-0.012 0.019-0.238 0-0.488-0.044-1.344-0.225-2.531-0.756-3.294-1.475-1.15-1.081-1.456-2.531-0.944-4.481 0.15-0.563 0.438-1.356 0.494-1.356 0.019 0 0.144 0.219 0.269 0.487zM14.275 14.625c0.644 0.163 1.563 0.537 1.913 0.769 0.9 0.606 1.987 1.65 2.5 2.394 0.406 0.581 0.606 1.044 0.7 1.581 0.181 1.075-0.475 2.050-1.906 2.819-0.856 0.463-1.931 0.619-2.763 0.406-0.887-0.231-1.856-0.9-2.462-1.694-0.444-0.594-0.925-1.575-1.044-2.15-0.175-0.813-0.025-2.494 0.281-3.213 0.206-0.481 0.594-0.837 1.069-0.981 0.313-0.094 1.219-0.056 1.712 0.069zM29.219 15.001c1.025 0.094 1.544 0.281 1.994 0.731 0.356 0.35 0.494 0.7 0.487 1.263 0 0.881-0.413 1.669-1.35 2.606-1.306 1.3-3.194 2.225-5.625 2.769l-0.556 0.119-0.5-0.525c-0.844-0.894-1.869-1.656-3.112-2.306l-0.613-0.319 0.237-0.344c0.481-0.675 0.85-1.531 0.919-2.156l0.044-0.35 0.331-0.15c0.181-0.075 0.663-0.256 1.069-0.394 2.306-0.788 4.7-1.119 6.675-0.944zM6.207 17.469c0.369 0.050 0.7 0.106 0.731 0.125 0.037 0.019 0.063 0.112 0.063 0.206 0.006 0.256 0.256 0.95 0.5 1.35 0.744 1.244 2.406 2.144 4.5 2.425 0.488 0.069 0.569 0.1 0.819 0.313l0.269 0.231-0.588 0.275c-0.787 0.369-1.8 0.7-2.65 0.869-0.588 0.119-0.887 0.144-1.975 0.138-1.081 0-1.381-0.025-1.931-0.138-2.275-0.494-4.725-1.862-5.406-3.025-0.75-1.287 0.325-2.4 2.681-2.763 0.744-0.119 2.15-0.119 2.987-0.006zM21.588 20.582c2.231 1.463 3.544 3.337 3.95 5.631 0.1 0.588 0.113 2.081 0.025 2.65-0.175 1.063-0.625 1.95-1.225 2.4-0.869 0.663-2.069 0.6-3.325-0.175-0.656-0.406-1.694-1.45-2.188-2.213-1.081-1.644-1.644-3.35-1.912-5.819l-0.031-0.294 0.356-0.144c0.494-0.2 1.363-0.794 1.725-1.181 0.35-0.375 0.644-0.969 0.7-1.406 0.019-0.175 0.050-0.35 0.062-0.394 0.031-0.106 1.063 0.419 1.863 0.944zM13.644 22.463c0.713 0.413 1.7 0.588 2.613 0.456l0.356-0.050 0.044 0.394c0.019 0.219 0.1 0.75 0.169 1.194l0.131 0.794-0.194 0.394c-0.394 0.794-1.144 1.625-1.963 2.162-1.581 1.050-4.006 1.65-6.644 1.65-1.537 0-2.388-0.194-2.963-0.681-1-0.844-0.25-2.656 1.85-4.469 0.356-0.306 0.681-0.556 0.725-0.556 0.037 0 0.419-0.031 0.838-0.063 1.4-0.106 2.75-0.463 4.019-1.056 0.363-0.169 0.681-0.313 0.706-0.313 0.031-0.006 0.169 0.063 0.313 0.144z"></path>
</symbol>
<symbol id="icon-close" viewBox="0 0 32 32">
<path stroke-linejoin="round" stroke-linecap="round" stroke-miterlimit="4" stroke-width="2" d="M2 2l28.484 28.084"></path>
<path stroke-linejoin="round" stroke-linecap="round" stroke-miterlimit="4" stroke-width="2" d="M30.484 2l-28.484 28.084"></path>
</symbol>
<symbol id="icon-favicon" viewBox="0 0 32 32">
<path fill="#f5f5f3" style="fill: var(--color1, #f5f5f3)" d="M16.9 0.087c-0.65 0.212-1.188 0.8-1.519 1.656-0.281 0.725-0.531 2.1-0.794 4.362l-0.031 0.263-0.631-0.531c-2.612-2.181-4.588-2.931-5.669-2.15-1.019 0.738-1.325 2.931-0.831 5.925 0.056 0.319 0.050 0.331-0.075 0.3-0.963-0.231-3.112-0.275-4.037-0.075-1.856 0.4-2.819 1.219-2.556 2.175 0.1 0.387 0.206 0.569 0.706 1.238 0.531 0.719 2.138 2.338 3.037 3.081 0.362 0.294 0.725 0.594 0.813 0.663l0.156 0.125-0.875 0.006c-1.775 0-3.206 0.413-4.006 1.138-1.075 0.988-0.619 2.312 1.231 3.55 1.444 0.962 3.206 1.631 4.806 1.825 0.325 0.038 0.606 0.075 0.619 0.087 0.013 0.006-0.088 0.113-0.219 0.225-1.038 0.888-1.781 1.762-2.188 2.581-0.781 1.569-0.306 2.556 1.456 3.044 0.431 0.119 0.65 0.137 1.863 0.137 4.125 0 7.2-1.269 8.625-3.556l0.306-0.481 0.194 0.613c0.925 2.875 2.844 5.069 4.894 5.594 1.062 0.269 1.887 0.062 2.606-0.663 0.613-0.606 0.95-1.456 1.1-2.737 0.212-1.819-0.238-3.731-1.231-5.281-0.156-0.25-0.281-0.463-0.269-0.475 0.012-0.006 0.262-0.062 0.556-0.125 1.419-0.294 3.244-1.044 4.375-1.794 0.7-0.463 1.806-1.544 2.119-2.069 0.413-0.706 0.531-1.087 0.538-1.706 0-0.481-0.025-0.613-0.169-0.919-0.294-0.631-0.85-1.044-1.738-1.281-0.331-0.088-0.675-0.113-1.919-0.113-0.838 0-1.519-0.006-1.519-0.012s0.125-0.225 0.281-0.481c0.669-1.1 1.212-2.469 1.506-3.8 0.156-0.7 0.175-0.881 0.175-2.081 0-1.156-0.019-1.369-0.138-1.8-0.287-1.038-0.775-1.725-1.431-2.025-0.3-0.138-0.406-0.156-0.825-0.131-0.863 0.050-1.513 0.438-2.725 1.619l-0.694 0.675-0.225-0.763c-0.713-2.4-2.012-4.406-3.456-5.35-0.256-0.169-0.6-0.35-0.762-0.412-0.413-0.138-1.112-0.175-1.431-0.069zM18.125 0.388c1.081 0.331 2.275 1.525 3.175 3.175 0.362 0.662 0.794 1.744 1.044 2.631l0.219 0.756-0.513 0.631c-1.1 1.369-2.137 3.2-2.65 4.669-0.3 0.844-0.419 0.894-0.581 0.219-0.125-0.519-0.544-1.306-0.894-1.694-0.644-0.7-1.337-1.019-2.362-1.081l-0.656-0.037-0.044-0.281c-0.062-0.438-0.056-2.581 0.012-3.344 0.081-0.912 0.288-2.275 0.469-3.131 0.431-2.069 1.394-2.938 2.781-2.513zM9.963 3.75c0.9 0.231 2.094 0.931 3.475 2.044 1.188 0.956 1.075 0.731 1.094 2.188 0.006 0.681 0.038 1.337 0.063 1.462l0.044 0.225-0.556 0.1c-0.3 0.056-0.813 0.188-1.125 0.287-0.55 0.169-0.594 0.175-0.844 0.088-1.088-0.381-2.381-0.356-3.181 0.050-0.219 0.113-0.231 0.106-0.688-0.037-0.537-0.169-0.487-0.069-0.65-1.375-0.131-1.050-0.131-2.588 0-3.275 0.188-0.987 0.6-1.594 1.2-1.781 0.406-0.125 0.606-0.119 1.169 0.025zM26.769 4.7c0.137 0.044 0.4 0.213 0.581 0.381 0.613 0.556 0.937 1.5 1 2.856 0.1 2.037-0.569 4.369-1.806 6.356-0.319 0.512-0.319 0.512-0.631 0.55-1.1 0.144-2.794 0.581-4.025 1.038-0.362 0.131-0.675 0.244-0.694 0.244-0.025 0-0.075-0.175-0.113-0.394-0.15-0.769-0.462-1.312-1.219-2.081l-0.494-0.5 0.225-0.644c0.794-2.275 2.137-4.362 4.031-6.256 1.35-1.356 2.275-1.813 3.144-1.55zM6.032 10c0.8 0.081 1.469 0.206 2.013 0.381l0.394 0.131-0.188 0.225c-0.431 0.537-0.631 1.412-0.506 2.225l0.069 0.469-0.25 0.631c-0.35 0.881-0.563 1.781-0.606 2.563l-0.037 0.663-0.487-0.075-0.487-0.069-0.763-0.613c-1.088-0.881-2.031-1.75-2.688-2.487-1.631-1.813-1.837-2.425-1.050-3.138s2.681-1.081 4.588-0.906zM16.463 10.119c0.756 0.269 1.375 0.813 1.738 1.531 0.194 0.381 0.375 0.856 0.344 0.887-0.006 0.006-0.425-0.188-0.919-0.438-1.369-0.681-2.575-1.037-3.531-1.037-0.15 0-0.294-0.031-0.313-0.063-0.025-0.037-0.25-0.188-0.512-0.344l-0.469-0.275 0.444-0.131c0.781-0.238 1.306-0.313 2.1-0.287 0.556 0.019 0.844 0.056 1.119 0.156zM11.319 10.225c0.581 0.106 1.281 0.369 1.806 0.669l0.338 0.194-0.4 0.075c-0.894 0.169-1.694 0.569-2.388 1.213-0.819 0.75-1.313 1.569-1.488 2.469l-0.1 0.5-0.269-0.4c-0.606-0.887-0.844-1.669-0.806-2.6 0.044-0.963 0.338-1.519 1-1.875 0.631-0.344 1.363-0.425 2.306-0.244zM15.063 11.444c0.6 0.113 0.581 0.094 0.375 0.375-0.1 0.137-0.212 0.412-0.256 0.606-0.094 0.456 0.031 1.106 0.344 1.831 0.119 0.287 0.213 0.525 0.206 0.531-0.006 0.012-0.331-0.088-0.712-0.225-1.619-0.55-2.681-0.469-3.375 0.263-0.444 0.469-0.675 1.2-0.75 2.387l-0.037 0.681-0.481-0.5c-1.019-1.050-1.225-2.156-0.631-3.363 0.463-0.938 1.3-1.769 2.225-2.219 0.975-0.469 1.925-0.581 3.094-0.369zM17.5 12.338c0.956 0.475 1.575 0.912 2.219 1.563 0.438 0.438 0.619 0.675 0.794 1.037 0.469 0.975 0.475 1.869 0.019 2.913-0.162 0.369-0.775 1.337-0.85 1.337-0.019 0-0.075-0.119-0.119-0.269-0.331-1.119-1.406-2.4-3.019-3.606-0.306-0.225-0.4-0.35-0.6-0.775-0.506-1.056-0.631-1.863-0.381-2.375 0.069-0.144 0.2-0.3 0.294-0.363 0.163-0.094 0.188-0.094 0.575 0.050 0.219 0.088 0.7 0.3 1.069 0.488zM8.2 14.425c0.131 0.263 0.406 0.706 0.613 0.981s0.419 0.638 0.475 0.813c0.2 0.613 0.725 1.337 1.275 1.756 0.231 0.175 0.313 0.281 0.313 0.4 0.006 0.569 0.55 1.875 1.063 2.556 0.144 0.181 0.244 0.344 0.225 0.363-0.012 0.019-0.238 0-0.488-0.044-1.344-0.225-2.531-0.756-3.294-1.475-1.15-1.081-1.456-2.531-0.944-4.481 0.15-0.563 0.438-1.356 0.494-1.356 0.019 0 0.144 0.219 0.269 0.488zM14.275 14.625c0.644 0.162 1.562 0.537 1.913 0.769 0.9 0.606 1.988 1.65 2.5 2.394 0.406 0.581 0.606 1.044 0.7 1.581 0.181 1.075-0.475 2.050-1.906 2.819-0.856 0.463-1.931 0.619-2.762 0.406-0.887-0.231-1.856-0.9-2.463-1.694-0.444-0.594-0.925-1.575-1.044-2.15-0.175-0.813-0.025-2.494 0.281-3.213 0.206-0.481 0.594-0.838 1.069-0.981 0.313-0.094 1.219-0.056 1.713 0.069zM29.219 15c1.025 0.094 1.544 0.281 1.994 0.731 0.356 0.35 0.494 0.7 0.487 1.263 0 0.881-0.413 1.669-1.35 2.606-1.306 1.3-3.194 2.225-5.625 2.769l-0.556 0.119-0.5-0.525c-0.844-0.894-1.869-1.656-3.112-2.306l-0.613-0.319 0.238-0.344c0.481-0.675 0.85-1.531 0.919-2.156l0.044-0.35 0.331-0.15c0.181-0.075 0.663-0.256 1.069-0.394 2.306-0.787 4.7-1.119 6.675-0.944zM6.207 17.469c0.369 0.050 0.7 0.106 0.731 0.125 0.037 0.019 0.063 0.112 0.063 0.206 0.006 0.256 0.256 0.95 0.5 1.35 0.744 1.244 2.406 2.144 4.5 2.425 0.488 0.069 0.569 0.1 0.819 0.313l0.269 0.231-0.588 0.275c-0.787 0.369-1.8 0.7-2.65 0.869-0.588 0.119-0.887 0.144-1.975 0.137-1.081 0-1.381-0.025-1.931-0.137-2.275-0.494-4.725-1.863-5.406-3.025-0.75-1.288 0.325-2.4 2.681-2.762 0.744-0.119 2.15-0.119 2.987-0.006zM21.588 20.581c2.231 1.463 3.544 3.337 3.95 5.631 0.1 0.587 0.112 2.081 0.025 2.65-0.175 1.062-0.625 1.95-1.225 2.4-0.869 0.662-2.069 0.6-3.325-0.175-0.656-0.406-1.694-1.45-2.188-2.212-1.081-1.644-1.644-3.35-1.913-5.819l-0.031-0.294 0.356-0.144c0.494-0.2 1.363-0.794 1.725-1.181 0.35-0.375 0.644-0.969 0.7-1.406 0.019-0.175 0.050-0.35 0.063-0.394 0.031-0.106 1.063 0.419 1.863 0.944zM13.644 22.463c0.713 0.413 1.7 0.587 2.612 0.456l0.356-0.050 0.044 0.394c0.019 0.219 0.1 0.75 0.169 1.194l0.131 0.794-0.194 0.394c-0.394 0.794-1.144 1.625-1.962 2.162-1.581 1.050-4.006 1.65-6.644 1.65-1.537 0-2.388-0.194-2.963-0.681-1-0.844-0.25-2.656 1.85-4.469 0.356-0.306 0.681-0.556 0.725-0.556 0.037 0 0.419-0.031 0.838-0.062 1.4-0.106 2.75-0.463 4.019-1.056 0.363-0.169 0.681-0.313 0.706-0.313 0.031-0.006 0.169 0.063 0.313 0.144z"></path>
</symbol>
</defs>
</svg>
